<svg xmlns="http://www.w3.org/2000/svg" viewBox="0 0 600 400"><rect width="100%" height="100%" fill="#fff8fb"/><g transform="translate(60,40)" fill="#ff6fa3"><path d="M120 200c-50-40-80-120-40-160 40-40 100-20 140 20s60 120 10 160c-50 40-110 40-210-20z" fill="#ffd8e6"/><path d="M200 120c0 30-24 54-54 54s-54-24-54-54 24-54 54-54 54 24 54 54z" fill="#fff"/><path d="M320 120c0 30-24 54-54 54s-54-24-54-54 24-54 54-54 54 24 54 54z" fill="#fff"/></g><text x="20" y="30" fill="#c64a73" font-size="18" font-family="Arial">Arkası dönük çift - siluet</text></svg>